<?xml version="1.0" encoding="UTF-8" standalone="no"?>
<!-- Created with Inkscape (http://www.inkscape.org/) -->

<svg
   xmlns:dc="http://purl.org/dc/elements/1.1/"
   xmlns:cc="http://creativecommons.org/ns#"
   xmlns:rdf="http://www.w3.org/1999/02/22-rdf-syntax-ns#"
   xmlns:svg="http://www.w3.org/2000/svg"
   xmlns="http://www.w3.org/2000/svg"
   xmlns:sodipodi="http://sodipodi.sourceforge.net/DTD/sodipodi-0.dtd"
   xmlns:inkscape="http://www.inkscape.org/namespaces/inkscape"
   width="210mm"
   height="297mm"
   viewBox="0 0 210 297"
   version="1.1"
   id="svg8"
   inkscape:version="0.92.1 r15371"
   sodipodi:docname="Logo.svg">
  <defs
     id="defs2" />
  <sodipodi:namedview
     id="base"
     pagecolor="#ffffff"
     bordercolor="#666666"
     borderopacity="1.0"
     inkscape:pageopacity="0.0"
     inkscape:pageshadow="2"
     inkscape:zoom="0.49497475"
     inkscape:cx="-81.370428"
     inkscape:cy="534.91161"
     inkscape:document-units="mm"
     inkscape:current-layer="layer1"
     showgrid="true"
     inkscape:snap-text-baseline="false"
     inkscape:window-width="1920"
     inkscape:window-height="1001"
     inkscape:window-x="-9"
     inkscape:window-y="-9"
     inkscape:window-maximized="1">
    <inkscape:grid
       type="xygrid"
       id="grid19" />
  </sodipodi:namedview>
  <metadata
     id="metadata5">
    <rdf:RDF>
      <cc:Work
         rdf:about="">
        <dc:format>image/svg+xml</dc:format>
        <dc:type
           rdf:resource="http://purl.org/dc/dcmitype/StillImage" />
        <dc:title />
      </cc:Work>
    </rdf:RDF>
  </metadata>
  <g
     inkscape:label="Layer 1"
     inkscape:groupmode="layer"
     id="layer1">
    <g
       aria-label="ALS"
       transform="matrix(0.26458333,0,0,0.26458333,-11.275276,3.6486039)"
       style="font-style:normal;font-weight:normal;font-size:40px;line-height:1.25;font-family:sans-serif;letter-spacing:0px;word-spacing:0px;fill:#000000;fill-opacity:1;stroke:none"
       id="flowRoot3680">
      <path
         style="font-style:normal;font-variant:normal;font-weight:normal;font-stretch:normal;font-size:85.33333588px;font-family:Chiller;-inkscape-font-specification:Chiller;fill:#800000;stroke-width:9.69978714"
         d="m 383.77474,-2.4359706 -6.25835,5.4010846 -6.03246,2.0333577 -4.81237,5.4328103 -5.0609,12.200146 -4.33793,15.599766 0.47446,12.200146 -0.47446,18.30023 v 20.333576 l -1.93172,16.933984 v 15.59975 l -3.12919,12.20015 0.96022,13.53452 3.61494,11.53289 -2.40619,12.20014 v 18.30023 l 0.96022,21.00084 0.48573,20.33359 v 22.36694 l 0.96022,19.66632 2.40619,14.90076 -1.92044,16.96587 0.47445,13.53451 -0.96022,18.30023 -0.96021,13.56624 0.96021,12.86741 -0.96021,21.03258 -0.48574,21.66794 v 23.73304 l -0.96022,18.30022 0.96022,19.66648 0.48574,18.96733 -0.48574,18.30022 -0.96022,29.13429 -1.20874,22.36693 v 30.50038 l -0.48573,23.06592 v 52.86732 l 0.48573,14.23351 -0.48573,25.0674 -1.92044,20.33358 -0.97151,23.7332 -1.44597,21.00068 0.18074,8.35597 c -18.15753,21.10382 -42.451,49.48283 -61.82669,72.02529 l -1.25393,-7.2438 -3.37771,-23.70131 -3.12917,-26.43366 -2.41749,-16.96585 -3.36641,-27.76803 -3.86346,-18.99921 -3.12919,-19.6346 -1.44597,-19.66647 V 670.542 l 3.37771,-8.80054 8.42732,-10.86578 7.4784,-4.06671 1.92043,-6.76735 5.06091,-1.36641 3.86346,-11.50117 1.44598,-6.79906 1.92043,-4.06671 -1.92043,-6.76734 -1.44598,-7.46617 -8.92437,-5.40108 h -8.91308 l -9.39883,1.33388 -7.71563,-6.76734 -6.50688,-12.20016 -2.40619,-16.93396 -0.96022,-23.7332 -3.14047,-29.13411 -3.36641,-31.86663 -2.41749,-18.30023 v -12.20015 l -2.89195,-33.20084 -2.16896,-23.73318 -1.44598,-33.20084 -3.85216,-19.66649 -2.40619,-23.73302 -2.65472,-13.53453 -0.48573,-10.86578 -4.33793,-25.06756 0.48573,-16.93397 -4.57514,-17.63311 -2.41749,-14.23352 -3.85217,-12.20014 -0.48573,-11.53289 -5.53537,-21.00085 -4.33793,-27.10075 -1.93173,-23.7332 -4.57515,-25.06741 -3.86346,-21.032565 -2.4062,-4.066716 -5.54666,-23.701314 -6.50688,-8.133431 -7.70433,2.700464 -5.06091,12.200146 -5.30944,11.533051 h -3.12918 l -1.44598,17.60123 2.89195,10.166789 -0.96021,22.366946 3.61493,21.69967 -0.97151,18.30023 1.44597,8.13343 -1.44597,11.53304 -3.12918,12.20016 -1.44598,18.30022 -4.33792,9.4678 -3.61494,19.66632 -3.85216,25.06757 -0.97151,30.50036 0.97151,31.86647 0.47446,35.93335 -1.92044,10.83389 -0.97151,23.7332 -4.0894,42.00153 -1.93173,33.23272 -2.40619,34.56709 0.47445,10.8339 -0.47445,14.2335 -1.44597,18.9675 -6.50689,26.43365 -5.30944,23.73304 -31.845322,-1.4933 -30.670467,10.16679 -11.612983,47.68859 13.872318,30.05547 20.68421,9.49969 14.617897,7.46617 13.635087,-18.64964 0.96021,26.43366 2.89195,23.70131 4.33792,26.43366 v 17.63296 l -1.93173,27.79991 0.97152,18.30022 -2.41749,4.06671 -1.44597,27.76803 -3.85217,25.09928 -4.10069,5.4011 -2.891951,16.96585 -1.920433,12.20015 -4.586451,6.76718 v 12.86742 l -2.891948,4.06671 -1.445974,9.49953 0.485731,15.59975 -2.406188,17.60124 v 27.79972 l 2.406188,10.1668 v 13.5665 l 2.406194,5.401 3.377703,11.5329 h 4.575155 l 2.417494,5.4329 7.95285,-2.7322 8.11101,-3.9081 c -8.35073,9.7381 -14.04472,16.33 -22.570748,26.2749 v -7.4344 l -4.654233,10.3255 c -6.40732,49.555 34.531691,8.9834 32.929801,34.0588 l 36.23973,-37.6806 c 5.01747,-10.8718 54.51594,-74.10929 122.46724,-158.98319 l 3.16307,20.77833 6.98134,34.56708 4.82368,18.30023 3.37771,18.96755 2.64342,10.1667 1.44597,6.7991 3.86347,-4.0667 1.92043,-6.7991 -1.92043,-18.30021 -2.41749,-6.76734 v -11.53288 l -3.36641,-18.9675 -3.14048,-19.66631 -2.40619,-4.06671 -1.83006,-35.86975 c 16.5431,-20.61614 34.74631,-43.1825 53.04918,-65.86177 l -1.08448,11.66009 v 21.00068 l -1.44598,16.93414 -1.20874,13.56624 1.20874,15.59976 -2.65471,14.90061 -0.47445,15.59976 v 17.60124 l -0.48574,15.5996 2.4062,10.83406 5.54666,4.76571 8.43861,-3.39962 7.46712,7.46638 6.74408,4.06664 7.95285,1.33395 h 9.88462 l 8.43859,4.06663 h 13.73675 l 7.46713,-13.53443 8.91304,-15.59981 9.39884,-8.13343 6.75541,-11.53289 8.42732,-6.76733 h 7.4784 l 11.31926,-5.43281 9.88462,2.73234 h 8.43859 l 7.22987,-6.79906 6.50689,-5.40108 h 7.46712 l 4.33793,-10.1668 1.9317,-12.20015 3.61494,-15.59976 0.47428,-18.96733 v -18.30022 l -1.44598,-18.30023 -0.96018,-14.93249 -5.06091,-14.2335 -2.89195,-14.90078 -5.06091,-10.16679 -6.74414,-4.06672 -5.54664,7.46633 -6.99267,10.83389 -1.44598,12.20015 -6.25835,8.8007 -7.95286,10.86578 -10.37035,6.76718 -8.91304,4.06672 -9.39884,-4.06672 -7.46712,-1.36642 -4.82366,5.43281 -8.9131,8.80071 -6.50688,1.3664 -5.30944,5.43298 h -7.95286 l -6.98134,-8.13343 h -5.30944 l -9.39884,2.70045 -8.4273,2.70064 -5.30944,6.79906 -4.57513,-2.73235 -1.44598,-8.13343 0.48574,-18.30023 0.96022,-14.90078 v -3.36772 C 431.05116,725.71872 508.22014,630.70575 581.4212,540.46921 l 4.78981,2.70047 6.50689,18.30022 10.8448,13.56641 6.0211,16.93396 6.75542,13.5664 4.57517,14.23352 5.7839,9.4678 3.12915,22.36694 4.33792,23.73303 2.4175,25.06757 5.06091,20.33357 1.92042,26.43366 1.93177,19.66632 -2.40622,30.50037 -0.48585,21.00085 -3.61493,17.63296 -2.89195,23.7332 -4.81238,22.36693 -1.93176,16.26687 -11.56779,22.36694 -9.39884,11.50117 -10.35901,8.13343 -7.71566,-1.33389 -5.06091,4.06671 -15.66847,-2.73233 -6.98133,-8.13344 -3.37774,-6.10008 -0.96024,-5.40108 v -8.13343 h -3.61494 l -1.9317,8.13343 -0.96025,15.56787 1.92043,6.79906 h 3.61494 l 5.3095,8.13345 6.98133,4.06671 7.71561,1.33388 11.08206,6.10008 9.64737,-6.10008 13.97395,-6.76734 10.35907,-10.83389 6.26963,-14.23352 6.99268,-20.33357 2.89194,-16.96585 6.0211,-18.30023 2.89195,-25.73468 5.5467,-32.53372 1.92042,-27.79991 -0.47428,-35.93319 -2.89194,-25.06756 -3.61494,-26.43366 -1.93176,-24.4003 -3.37768,-22.36694 -7.95286,-35.93318 -1.44598,-15.56788 -5.53536,-10.86578 -5.7839,-18.30022 -7.95285,-19.63459 -15.90572,-26.43367 -0.66654,-1.39731 C 824.15289,241.06698 977.48689,48.869721 587.4763,498.50004 l -3.67144,-9.56312 -8.43859,-14.90077 -7.22988,-16.93397 -12.52803,-25.09929 -3.85219,-16.26687 -3.86347,-26.43366 -1.19744,-31.83474 4.57518,-27.79991 2.89194,-19.66632 13.97401,-35.90146 8.67585,-14.2335 12.05352,-12.20015 8.67585,-1.36642 h 8.43865 l 9.87328,-4.06671 5.06091,5.43296 8.92438,5.40109 1.44598,12.89914 7.22987,14.90061 6.98133,9.49969 7.47841,7.43444 h 6.25835 l 4.58646,-16.93413 -0.97153,-26.43366 -0.96024,-21.00068 -3.14048,-21.69984 -4.81238,-14.2335 -3.86347,-13.56624 -3.12914,-25.06757 -5.29817,-14.23351 -9.39883,-4.06672 -4.58646,10.16679 -9.87328,8.13344 -9.39883,13.5664 -10.84481,7.43444 -10.84481,2.73235 -11.33053,1.33389 -7.71567,8.13343 -8.9131,12.20015 -7.46706,16.96585 -6.03244,15.56788 -6.25835,18.99921 -5.54669,23.70131 -4.82366,27.79975 -4.08939,29.13428 v 52.86731 l 4.57512,26.43367 4.33793,25.09928 7.46712,24.4003 8.43859,21.00068 8.9131,6.76735 4.82371,11.53288 7.03779,13.91582 C 512.54985,584.88752 445.37405,662.6812 364.47994,756.67229 l 0.2597,-14.90061 -0.48585,-16.96585 2.41749,-23.03421 1.44598,-21.00069 0.47428,-18.30022 1.93176,-17.63313 V 623.8369 l 0.96019,-14.2335 1.44597,-16.26687 v -22.36694 l 2.16897,-23.7332 0.97152,-25.06741 2.40622,-18.9992 v -22.36695 l 1.93171,-46.06825 1.44597,-21.69984 0.47428,-18.30022 2.65475,-12.20014 1.44598,-14.23352 2.40615,-18.30021 v -20.33359 l 1.93177,-39.3009 2.40616,-21.69984 v -22.36695 l 2.16896,-19.66631 1.44597,-18.9675 1.44598,-18.30021 2.41749,-18.30023 1.44598,-26.43365 3.61493,-16.26688 5.7839,-14.2335 0.96024,-13.56624 1.93171,-18.300231 -0.97152,-14.900767 -1.92043,-19.666314 -4.33792,-18.30023 -6.50689,-12.200146 -5.30944,-8.1334303 -5.53536,-10.1667995 z M 89.202673,1074.6719 c 0.401114,-3.1023 0.967762,-6.4777 1.762284,-10.3255 l -10.957777,30.7864 z m 88.757967,-839.93566 4.82368,29.13411 1.92043,10.83407 5.54667,19.66631 0.48573,17.63311 3.85216,22.36695 3.12918,48.80059 2.41749,16.26688 -1.93173,10.16678 6.26965,23.70132 -0.48573,35.93317 2.89195,13.56641 1.68321,14.23351 2.41749,10.83389 0.96021,23.7332 4.82368,25.0674 2.16896,14.90077 -3.61493,15.5996 -1.93174,4.06672 -6.50688,4.06671 -9.63606,-5.4328 -5.54667,-10.83406 -9.88459,-15.5996 -11.80502,-12.20014 -11.33056,-14.23352 -4.0894,-16.26686 2.64342,-21.00085 -1.6832,-16.93397 2.65472,-16.26687 v -18.30022 l 0.96021,-38.63381 v -19.66648 l 2.4062,-9.49952 v -7.43445 l 0.97151,-24.4003 1.92043,-27.79991 0.97152,-8.80054 v -16.26686 l 3.61493,-15.59977 -0.97151,-17.63295 z m 482.96675,69.86489 -6.99267,1.33387 -4.57512,10.86578 5.06091,12.86726 4.33792,1.36641 6.50689,-4.06671 0.47428,-15.59976 z m -323.42383,141.63608 -2.89195,10.86578 2.41749,10.16679 3.85216,-6.10007 0.48573,-8.13344 z m -222.20557,92.13651 -2.64342,2.70062 -2.41749,7.46616 v 6.76735 l 2.89195,5.4328 2.16896,-4.06671 0.48573,-6.76718 v -7.46633 z m 79.29135,25.06756 -1.44597,2.73235 h -2.40619 l -0.48573,5.40108 2.40619,4.76571 2.89195,-2.03336 V 567.508 Z m 108.21084,44.73388 -0.97152,1.36642 -0.47445,5.43297 v 4.06671 h 1.44597 l 1.92044,-2.73234 0.48573,-5.40109 z m -84.83802,56.93403 10.37035,5.43281 8.19008,16.26687 2.16896,18.30022 10.35906,31.86663 4.33792,10.83389 5.54666,25.06757 3.85217,25.09929 4.82368,16.93397 5.95335,47.59327 c -49.758,57.90223 -98.72326,114.86716 -156.66228,182.43039 l 8.76623,-21.9538 5.29813,-18.3002 4.57516,-23.03429 2.89195,-29.13413 1.44597,-27.7999 -1.44597,-40.66716 1.44597,-25.06741 v -23.7332 l 3.37771,-10.83389 v -19.66647 l 1.93173,-30.50038 2.64342,-8.13343 13.73676,-22.36694 6.50688,-13.56624 1.93173,-11.50116 8.43862,-12.20016 8.91307,-22.36693 8.19009,-9.4997 11.33056,-5.4328 z M 82.040584,881.34416 80.59461,884.04462 v 6.76733 l 2.417489,2.73235 2.168962,-2.73235 c -0.160446,-2.7081 0.147315,-5.64036 -0.48579,-8.13343 z m 224.611756,172.13644 -1.44597,4.0668 0.48573,4.0666 1.44597,1.3664 c 1.44595,-0.9044 2.24551,-1.7976 2.40619,-2.7004 l -0.48573,-5.433 z"
         id="path3706"
         inkscape:connector-curvature="0" />
    </g>
    <text
       xml:space="preserve"
       style="font-style:normal;font-weight:normal;font-size:10.58333302px;line-height:1.25;font-family:sans-serif;letter-spacing:0px;word-spacing:0px;fill:#000000;fill-opacity:1;stroke:none;stroke-width:0.26458332"
       x="47.707607"
       y="48.572971"
       id="text3704"><tspan
         sodipodi:role="line"
         id="tspan3702"
         x="47.707607"
         y="58.228466"
         style="stroke-width:0.26458332" /></text>
  </g>
</svg>
